<mxfile host="65bd71144e">
    <diagram id="en7ARv4SkGQpmnLQatvt" name="Page-1">
        <mxGraphModel dx="1642" dy="925" grid="1" gridSize="10" guides="1" tooltips="1" connect="1" arrows="1" fold="1" page="1" pageScale="1" pageWidth="1100" pageHeight="850" math="0" shadow="0">
            <root>
                <mxCell id="0"/>
                <mxCell id="1" parent="0"/>
                <mxCell id="2" value="" style="shape=table;startSize=0;container=1;collapsible=0;childLayout=tableLayout;" parent="1" vertex="1">
                    <mxGeometry x="320" y="160" width="300" height="200" as="geometry"/>
                </mxCell>
                <mxCell id="3" value="" style="shape=tableRow;horizontal=0;startSize=0;swimlaneHead=0;swimlaneBody=0;top=0;left=0;bottom=0;right=0;collapsible=0;dropTarget=0;fillColor=none;points=[[0,0.5],[1,0.5]];portConstraint=eastwest;" parent="2" vertex="1">
                    <mxGeometry width="300" height="40" as="geometry"/>
                </mxCell>
                <mxCell id="4" value="1" style="shape=partialRectangle;html=1;whiteSpace=wrap;connectable=0;overflow=hidden;fillColor=none;top=0;left=0;bottom=0;right=0;pointerEvents=1;" parent="3" vertex="1">
                    <mxGeometry width="60" height="40" as="geometry">
                        <mxRectangle width="60" height="40" as="alternateBounds"/>
                    </mxGeometry>
                </mxCell>
                <mxCell id="5" value="0" style="shape=partialRectangle;html=1;whiteSpace=wrap;connectable=0;overflow=hidden;fillColor=none;top=0;left=0;bottom=0;right=0;pointerEvents=1;" parent="3" vertex="1">
                    <mxGeometry x="60" width="60" height="40" as="geometry">
                        <mxRectangle width="60" height="40" as="alternateBounds"/>
                    </mxGeometry>
                </mxCell>
                <mxCell id="6" value="1" style="shape=partialRectangle;html=1;whiteSpace=wrap;connectable=0;overflow=hidden;fillColor=none;top=0;left=0;bottom=0;right=0;pointerEvents=1;" parent="3" vertex="1">
                    <mxGeometry x="120" width="60" height="40" as="geometry">
                        <mxRectangle width="60" height="40" as="alternateBounds"/>
                    </mxGeometry>
                </mxCell>
                <mxCell id="7" value="0" style="shape=partialRectangle;html=1;whiteSpace=wrap;connectable=0;overflow=hidden;fillColor=none;top=0;left=0;bottom=0;right=0;pointerEvents=1;" parent="3" vertex="1">
                    <mxGeometry x="180" width="60" height="40" as="geometry">
                        <mxRectangle width="60" height="40" as="alternateBounds"/>
                    </mxGeometry>
                </mxCell>
                <mxCell id="8" value="0" style="shape=partialRectangle;html=1;whiteSpace=wrap;connectable=0;overflow=hidden;fillColor=none;top=0;left=0;bottom=0;right=0;pointerEvents=1;" parent="3" vertex="1">
                    <mxGeometry x="240" width="60" height="40" as="geometry">
                        <mxRectangle width="60" height="40" as="alternateBounds"/>
                    </mxGeometry>
                </mxCell>
                <mxCell id="9" value="" style="shape=tableRow;horizontal=0;startSize=0;swimlaneHead=0;swimlaneBody=0;top=0;left=0;bottom=0;right=0;collapsible=0;dropTarget=0;fillColor=none;points=[[0,0.5],[1,0.5]];portConstraint=eastwest;" parent="2" vertex="1">
                    <mxGeometry y="40" width="300" height="40" as="geometry"/>
                </mxCell>
                <mxCell id="10" value="0" style="shape=partialRectangle;html=1;whiteSpace=wrap;connectable=0;overflow=hidden;fillColor=none;top=0;left=0;bottom=0;right=0;pointerEvents=1;" parent="9" vertex="1">
                    <mxGeometry width="60" height="40" as="geometry">
                        <mxRectangle width="60" height="40" as="alternateBounds"/>
                    </mxGeometry>
                </mxCell>
                <mxCell id="11" value="0" style="shape=partialRectangle;html=1;whiteSpace=wrap;connectable=0;overflow=hidden;fillColor=none;top=0;left=0;bottom=0;right=0;pointerEvents=1;" parent="9" vertex="1">
                    <mxGeometry x="60" width="60" height="40" as="geometry">
                        <mxRectangle width="60" height="40" as="alternateBounds"/>
                    </mxGeometry>
                </mxCell>
                <mxCell id="12" value="1" style="shape=partialRectangle;html=1;whiteSpace=wrap;connectable=0;overflow=hidden;fillColor=none;top=0;left=0;bottom=0;right=0;pointerEvents=1;" parent="9" vertex="1">
                    <mxGeometry x="120" width="60" height="40" as="geometry">
                        <mxRectangle width="60" height="40" as="alternateBounds"/>
                    </mxGeometry>
                </mxCell>
                <mxCell id="13" value="0" style="shape=partialRectangle;html=1;whiteSpace=wrap;connectable=0;overflow=hidden;fillColor=none;top=0;left=0;bottom=0;right=0;pointerEvents=1;" parent="9" vertex="1">
                    <mxGeometry x="180" width="60" height="40" as="geometry">
                        <mxRectangle width="60" height="40" as="alternateBounds"/>
                    </mxGeometry>
                </mxCell>
                <mxCell id="14" value="0" style="shape=partialRectangle;html=1;whiteSpace=wrap;connectable=0;overflow=hidden;fillColor=none;top=0;left=0;bottom=0;right=0;pointerEvents=1;" parent="9" vertex="1">
                    <mxGeometry x="240" width="60" height="40" as="geometry">
                        <mxRectangle width="60" height="40" as="alternateBounds"/>
                    </mxGeometry>
                </mxCell>
                <mxCell id="15" value="" style="shape=tableRow;horizontal=0;startSize=0;swimlaneHead=0;swimlaneBody=0;top=0;left=0;bottom=0;right=0;collapsible=0;dropTarget=0;fillColor=none;points=[[0,0.5],[1,0.5]];portConstraint=eastwest;" parent="2" vertex="1">
                    <mxGeometry y="80" width="300" height="40" as="geometry"/>
                </mxCell>
                <mxCell id="16" value="1" style="shape=partialRectangle;html=1;whiteSpace=wrap;connectable=0;overflow=hidden;fillColor=none;top=0;left=0;bottom=0;right=0;pointerEvents=1;" parent="15" vertex="1">
                    <mxGeometry width="60" height="40" as="geometry">
                        <mxRectangle width="60" height="40" as="alternateBounds"/>
                    </mxGeometry>
                </mxCell>
                <mxCell id="17" value="1" style="shape=partialRectangle;html=1;whiteSpace=wrap;connectable=0;overflow=hidden;fillColor=none;top=0;left=0;bottom=0;right=0;pointerEvents=1;" parent="15" vertex="1">
                    <mxGeometry x="60" width="60" height="40" as="geometry">
                        <mxRectangle width="60" height="40" as="alternateBounds"/>
                    </mxGeometry>
                </mxCell>
                <mxCell id="18" value="1" style="shape=partialRectangle;html=1;whiteSpace=wrap;connectable=0;overflow=hidden;fillColor=none;top=0;left=0;bottom=0;right=0;pointerEvents=1;" parent="15" vertex="1">
                    <mxGeometry x="120" width="60" height="40" as="geometry">
                        <mxRectangle width="60" height="40" as="alternateBounds"/>
                    </mxGeometry>
                </mxCell>
                <mxCell id="19" value="1" style="shape=partialRectangle;html=1;whiteSpace=wrap;connectable=0;overflow=hidden;fillColor=none;top=0;left=0;bottom=0;right=0;pointerEvents=1;" parent="15" vertex="1">
                    <mxGeometry x="180" width="60" height="40" as="geometry">
                        <mxRectangle width="60" height="40" as="alternateBounds"/>
                    </mxGeometry>
                </mxCell>
                <mxCell id="20" value="1" style="shape=partialRectangle;html=1;whiteSpace=wrap;connectable=0;overflow=hidden;fillColor=none;top=0;left=0;bottom=0;right=0;pointerEvents=1;" parent="15" vertex="1">
                    <mxGeometry x="240" width="60" height="40" as="geometry">
                        <mxRectangle width="60" height="40" as="alternateBounds"/>
                    </mxGeometry>
                </mxCell>
                <mxCell id="21" value="" style="shape=tableRow;horizontal=0;startSize=0;swimlaneHead=0;swimlaneBody=0;top=0;left=0;bottom=0;right=0;collapsible=0;dropTarget=0;fillColor=none;points=[[0,0.5],[1,0.5]];portConstraint=eastwest;" parent="2" vertex="1">
                    <mxGeometry y="120" width="300" height="40" as="geometry"/>
                </mxCell>
                <mxCell id="22" value="0" style="shape=partialRectangle;html=1;whiteSpace=wrap;connectable=0;overflow=hidden;fillColor=none;top=0;left=0;bottom=0;right=0;pointerEvents=1;" parent="21" vertex="1">
                    <mxGeometry width="60" height="40" as="geometry">
                        <mxRectangle width="60" height="40" as="alternateBounds"/>
                    </mxGeometry>
                </mxCell>
                <mxCell id="23" value="0" style="shape=partialRectangle;html=1;whiteSpace=wrap;connectable=0;overflow=hidden;fillColor=none;top=0;left=0;bottom=0;right=0;pointerEvents=1;" parent="21" vertex="1">
                    <mxGeometry x="60" width="60" height="40" as="geometry">
                        <mxRectangle width="60" height="40" as="alternateBounds"/>
                    </mxGeometry>
                </mxCell>
                <mxCell id="24" value="0" style="shape=partialRectangle;html=1;whiteSpace=wrap;connectable=0;overflow=hidden;fillColor=none;top=0;left=0;bottom=0;right=0;pointerEvents=1;" parent="21" vertex="1">
                    <mxGeometry x="120" width="60" height="40" as="geometry">
                        <mxRectangle width="60" height="40" as="alternateBounds"/>
                    </mxGeometry>
                </mxCell>
                <mxCell id="25" value="0" style="shape=partialRectangle;html=1;whiteSpace=wrap;connectable=0;overflow=hidden;fillColor=none;top=0;left=0;bottom=0;right=0;pointerEvents=1;" parent="21" vertex="1">
                    <mxGeometry x="180" width="60" height="40" as="geometry">
                        <mxRectangle width="60" height="40" as="alternateBounds"/>
                    </mxGeometry>
                </mxCell>
                <mxCell id="26" value="1" style="shape=partialRectangle;html=1;whiteSpace=wrap;connectable=0;overflow=hidden;fillColor=none;top=0;left=0;bottom=0;right=0;pointerEvents=1;" parent="21" vertex="1">
                    <mxGeometry x="240" width="60" height="40" as="geometry">
                        <mxRectangle width="60" height="40" as="alternateBounds"/>
                    </mxGeometry>
                </mxCell>
                <mxCell id="27" value="" style="shape=tableRow;horizontal=0;startSize=0;swimlaneHead=0;swimlaneBody=0;top=0;left=0;bottom=0;right=0;collapsible=0;dropTarget=0;fillColor=none;points=[[0,0.5],[1,0.5]];portConstraint=eastwest;" parent="2" vertex="1">
                    <mxGeometry y="160" width="300" height="40" as="geometry"/>
                </mxCell>
                <mxCell id="28" value="0" style="shape=partialRectangle;html=1;whiteSpace=wrap;connectable=0;overflow=hidden;fillColor=none;top=0;left=0;bottom=0;right=0;pointerEvents=1;" parent="27" vertex="1">
                    <mxGeometry width="60" height="40" as="geometry">
                        <mxRectangle width="60" height="40" as="alternateBounds"/>
                    </mxGeometry>
                </mxCell>
                <mxCell id="29" value="0" style="shape=partialRectangle;html=1;whiteSpace=wrap;connectable=0;overflow=hidden;fillColor=none;top=0;left=0;bottom=0;right=0;pointerEvents=1;" parent="27" vertex="1">
                    <mxGeometry x="60" width="60" height="40" as="geometry">
                        <mxRectangle width="60" height="40" as="alternateBounds"/>
                    </mxGeometry>
                </mxCell>
                <mxCell id="30" value="0" style="shape=partialRectangle;html=1;whiteSpace=wrap;connectable=0;overflow=hidden;fillColor=none;top=0;left=0;bottom=0;right=0;pointerEvents=1;" parent="27" vertex="1">
                    <mxGeometry x="120" width="60" height="40" as="geometry">
                        <mxRectangle width="60" height="40" as="alternateBounds"/>
                    </mxGeometry>
                </mxCell>
                <mxCell id="31" value="0" style="shape=partialRectangle;html=1;whiteSpace=wrap;connectable=0;overflow=hidden;fillColor=none;top=0;left=0;bottom=0;right=0;pointerEvents=1;" parent="27" vertex="1">
                    <mxGeometry x="180" width="60" height="40" as="geometry">
                        <mxRectangle width="60" height="40" as="alternateBounds"/>
                    </mxGeometry>
                </mxCell>
                <mxCell id="32" value="1" style="shape=partialRectangle;html=1;whiteSpace=wrap;connectable=0;overflow=hidden;fillColor=none;top=0;left=0;bottom=0;right=0;pointerEvents=1;" parent="27" vertex="1">
                    <mxGeometry x="240" width="60" height="40" as="geometry">
                        <mxRectangle width="60" height="40" as="alternateBounds"/>
                    </mxGeometry>
                </mxCell>
                <mxCell id="33" value="" style="shape=stencil(lVrJct1GDPwaXVGzL2fH+Q9XWY5UUSSXrGx/n2Zeho/T89iKbloAEoOl0cDwLn768fDl+/1dcD/eXl9+vf/z8evbw1386S6Ex+eH+9fHN/x0Fz/fxU/fXl7vf3l9+f356+X37182ye2n317+2J7w10UvV3Np0wru78tfipX+7x9+vsg/PT4f5ZNllo9eyDtrneSzeH7K5uskXy0peW9ttqeZy+fysVmKJF+UfLI+298tKPnFnm49ncvj9a1N8t5ZCUIBASizQjDfhIK3lGeFPGJ+U8HjhHMIfLUuTMK//0uBoYB3KifBgDwfGqcqVSgkc/Oh4bek3hAshkkhBpmn8HqeDx2zNXHoxnmBzOruXL5anaOQvDwB6nK2JyVZOIXtSSgckRZ4/lwH2Y+gnMiH2f5cLImQVctzThRvRQQAKTbbU7J14Z9mdfZP6ebLuXxn/1RvXSWEt+pmhWRJKURrc47WKi3yZYG6bkUpAKpmkxqMVODih8W7QrSqwaXMUW55wM1thTqCtCvUgR5n+Ejg0po8NACY4tCdOZGoEZU2g0v35kTgkuPAQUGZhErshPHBgqj91EaqHRVEHHLgrgyFJCKd8/DJQUFFOjeL1NfiQITb+ILGFlkhCpNQv86xQhImoYDToqC8VMNyhjCS5bZCXpqzlyC/FSS51UnUQ32RAtK7iVxqxRoVEJBcvQHdmQhMkgwDRwwLaqh2vuUmQWWTvRMKhBpwdNYKdY4DQllFc7uh4EZ2nSpQOwEYf+gMJY6OcabgiNg6CZVXFDp00KwjTSYBFoKIdFt6KDiAolVItTinRoqjBm8rJMbW2LVJ0TzxsP0RtxUWthqdrIe6eClUSW/RlQnuA4BMIF8tDMYBkVYwExdOj8gobuWZfG7cQLwByUxTFRiyYpNIZiog/w56u/Hvw5gRhUl5h63jIKMnSWK4mghgkkxzKmULqq13a8SgLYggpAXroxxi1ucHac9m/1z/XtoDPh7mPNX4kgNPYW7U3m35ODrZVV5BKuJV+PmSw+Qxx17lq7IfYEQJpM+LzklT51hNnMrThCcHqg2dZ/+nQb/PzkskL0uqAH/2Od+K7FCIF9lfNCVEC/Qfkfc8Xbxjjxu95XBelc+O+1+SAyHqi4h/lP7f5AnXLYv6hT2eMFS2Y8jTqOPGCHrmz0U+iDaD+BKFf7ceAz9fxitzs3faPwg/7Y3kZPdR+bK//po/XnWkxDy2jInkrEcSQatysQZG+aHNYF38j4anaDKIBxUYWqrqkM0tq748tki3FcJCC7rchoLP0fSBolEgDcZIayxEQfK5Nta3Bz6nBlMMWGFZxDnNq/vsJXBSBbzXMfTIesUZeuZIpyp3U32fNQ7MvYpc7Y23ZbnK5t07N+Oiu6V3jsdxDOhqs35Lo8kKglFEAUFskwpdHyvT445NRaKPln3YsTU1/LZlP+UH7J+FjroIaiTq5OClXHtvNC20tXDW1NC11/D/3LzA4kKrmiwD13YmtyvUsT8/W6RQzcHRatKsS5FuoVRo35gNbsmi4D7xWHdI4LONlnf8iqYYYeVRczuEojz7xHFQkD104Ujwq2pyKTOJ3AKhphxkX2IFVXJx2Tf1KjdagGuq0V7lZnG7MqM46KsXNGZO1yQn+LCMLtt+SMQB1Ijd6sZMfxssUS+EM01utLYbLbq3LHI76r25+dDbLl8td4ZLdnknLVrGl42vqLBx1IDdakGwjKdVX3R6BoBSpLzjXoL6Vosjx8TkOlCeyHNP9xK2l+6Z9hw5ez5d4EW5D3G8ZEpOzi+Bb5tiHVBwEl8aH2OSVZmZVUWvl/Hm5/zcylpRz5G9u3yS8+y2flrWdmq5CTZOGe2LvpXOgxkclmqKbvsVuGSKIma0IqsSI7ZL1/n5WX/c4FZ5dVMWI88XeqWGDKMlYpT2IIN5vSw7R0rjy4fryC9XHI77sb7zxsjMe1kJQbkxUwsjyc/kOUX1xzSdazjIFQrkC69QVHwhTz0gyhEBI7zjfJB3iI5vA/Q3DXm5tNcrAsjTrU+WEAd5ys8ir5YRr8byqh4hH3hlJ+2pA/Gv8mps/PDHW+/K44frl2LfHp+eLh+aHf/PX5bhT5ev0uLnfwA=);lineShape=1;" parent="1" vertex="1">
                    <mxGeometry x="324.9921986151294" y="145.9167466324501" width="41.540493220736835" height="46.16979922649284" as="geometry"/>
                </mxCell>
                <mxCell id="39" value="" style="shape=stencil(lZ3ZkiU3ckS/hq/XEjvwPJL+g2ZsDmkzYtOaHC1/L4Rotxb3rIOuNy7wuoktEKvHD+Vvf/zy4+9ffsjXH39++/qPL//9609//vJD+bcfcv71t1++fPv1z/1PP5R//6H87eev3778/dvXf/3201///vuPMTL+6T+//lf8hf/5C1fnI61A5et///ov+VHb//+H//hr/D9//e3t+PEYQ8d3HJ+bjG8JxvfHTDK+09/vjzJl/KK/3x7r/feUR8k4vg0ZP2l9ms63PlqB8fWx8rvx7VEqju/v/35/5AvH1/frOR6Jvr8+8vvvmY+L1r8+UpLxi//+db0bv54bfj++PLfzOT5dzx35CDDLe0B61MmA91+U8nPNvhdQHon27A6Ai+SA+hjrU4B9bj/3Sfsi0TlywHhcdLDvAONz+zBPOz3ei660nsLgQ8D7o5GvR+Y5dAGkx8XL2gwwSbyUR63vAVs+8hxKfw8op9OaRWDXR+FJp/cSIEQSndYtceWT+gkgO72FUqbjnVXobSmTaR/y8/S/ABaLsfwoIuavx8VzSAJIz3W7B6THev9JJT+fio8Acrw3YNLRSI8uv7CPI93ppGep1OeB/wiQ5PFsj06/cNmkO6sLl17RMp4KykeA2hQwSWrsfX3/oJQtZuCTyrKjsVDcl2kqxv4TMIcNqFMBJPn2FP0XBuzDBuhOL3xQ9jaNqoBJk+7P+/UWQHNoj3p9ClDtaGwAbdxWNWzjSHfb16V+DpBVeTsDqgNoDkll62mVkurzG7DoaFzPG/wWAIIsBKOtEmkzW/Q2O0sL5hAqpO30AskXr4ED4Hjv90alxgHQH92uKALczjgCsi8rAbasfi/IQrTBTr9aLt8PuD63rPtR/NzGpadx971HIz2tnbcAuEBbwxu+DwBI6+ZOHwDpU0cjmbiPfaBfeFGc3wASLGuo5nY0yMrdyn/OCqiwD9u8kEdxAzr9Qn1KoTeAwYDaFUCqdNhUBligzSTTvbd+g/uw9a+lAFJONqDYLxRQ1tOLtfAGUGnS6eYXyL8S1nNSQAfpbddhjyeDfemzHoovnNWp/qStWZNDYzzlw5vxZP8MtchiPJzsLejt7zdYn6Ya7qux8sF4XZ/M+qq6M8ICxPHiDwu7mhQGtTJqRQ29qL+ntscFJzSr/6myZ8JvwNYs6Y6pRrXH0/onfaLqYEn3NPhfxk90lPj49cgkq3V840f5bjzK0acZ+zL+IFHUxGv7PpJQfFrub8bTeUtPk/Rl/DZS8XtE5raKT5mJ3D0eFQR9NVrD81Ce7pk34ycZqKrWtc4O3qe0fDN+wPim8qoN9EP0pyn6ZnyFV7Kr/NnjyUE1VDFoLxGDD+S/+IPbxPO/34uk48mNYsbHHk/yfD+Q1QBk04V7WW7MYu0sq2azAeSnSWaXNrbeQ3d6D+gX+i23OieT3gCUWl2v2QaQl32rpMkAKKeHWisbMEgQTV3WDSBNZQPWMgApjOvuF8jyvVSYngHdNo6U3pzUWRurRCZaUnuov1hIH9p0tkoDVimbszYAsA+hUhig0xzK88V7CyAzs6rSdQK055v3vZ/Ubj6JPHIRtiufWqV+t3F0NIa+PKeNG+qWDwBIjS2LS/rUL5iyf1qldbNKJDU2oNtpbeTo3FfUdpqEcXmxc99KPgIk9ZcdZGsxFWkD0OFsoYXOOmTJaiS0g3c3a1R+AzppSUW9ihtAlm+pprdN1NtKeyRTHMgDsQHLNAeypMIHPhSQ6ReGHo0NOEQKajEArdLSqFMAaKeXqc8Tzal6qeP/BEjPSNx3ziHiWj4HWNaIzfkqUZjK3PIB4Hh7cwAZ2VWtyABQbK7eLCvGtZrK1jh8FGprz0DC9wK6Ws5nwPL7QIChvqYTYGoQ6QxQMXMALFVDz4DxqV/Y5rjfhwNAvLsnQHoawN95ljZAbbgDIN8cvgTCeAN8DnRFt9Hf7RfIQmn+PgxM9NpmuRqWAxWsdmdJk2ciDPmugEKrNMwXM9B2jS92AH3SNEtxA2jS6+nM+n6A7jR/Ur/stA7M3eiXRv8CAMvak52lgS6inm8+iRKHejG5NNBJugHTfoG8Jr1qmuEGkMHR280cSIXrXdXQuHGw0xtwI5cIMG60Gcp76HfinlIxNkCv6EQbqC/NxgxnDv3CMkV3YjBvXHaBFmpkwyz2tlAIDJfenE4y8qMuBZCyPoquUhgcDBhmllGW66g39jTlDAwLe+xbXuF4j6aHbwMokjy6Bre3WCDDbwOamJYFrawxNFSyAZU2bqgQ6JwnugEiKrccwaNhoectR0gYb4DuQ0dVeiw1y/pAMbMBpSkAN249ZcQLYJ4AIsg6Z7iMpbkb+5aTLTotJWZfWgo9z0tzBgbn9m2AXKBR0Fe5AeKH31eK3Kfz0kDpvlLkm5mXulr2DaHswQ2Y71W4fX47HI152T5M9P5MC4697v2HgPertH+ToskBeD/pmTBPdP9vzY9P+GRNC1BOrsgIwPujMQvaD9NSxCaLmQ0QL9ys6BicFhScHPSdlok6OUo2LegyB7paNqAZgPLiZlI39px8WpOa+JMf9mmhzcWexH0Q5HivhJ7EmTVbamUOrlm0fgNQCGTNi1sFw4kbIEGXVdF+2GdTFKwNIHG/AeKFW43lUlExszpvnMV0V8dI0zTvzxoYhJ/m/VmHKGpT38w6hFG7CuPFKfX7uogXbrH7dAOmAUj92fdLpMYGkNG075dIvg0go2mum1Wi470se3BxTcoy332sEjy7+36JJrB3mgyOZa6WOEuwSnEh7XhPmrRVUK2OWuWymrF940j9WVXrajaA3rj9v0VZDyHAAAlobwDduA3QSXPe1F4T3biCdTUbIGbZ61Z+BFCpwRUjy2Ls+ziSHRcnx54sPHxmocyFQmAD5H3Yt5xChCHnlgIoKXMD5BWd7MwJwfj+tE7WW9fUZd3SlqL4IUm7AigkEjJCVomTnEIKvRczs6ABvqb6yPZDTCrcqyR9o7eSDRSSdCqALMUNkBcobBY6fPNpIr3R7kncL6sj2PYDGX5rajLYYJdXAOST2Ge8lmZmj4MwXir5NoD8S2upUy1cIzSHDZA5VEyO2AAxaQbbDwHICiC99QbAVZE3gIRZebcAConcANjl5avU1/GTBDCx9H3duVoOnyTGa+dqPD8avaEXLgDiwaroVLsBlOMnvd+HnjGxwK9oT7ysU6PHG0AerDU18hoxDxbG6llfz9LN7xTGjavsXxXn7/Tdr7vAEW7ctOBXx0y1Nc0V3zHsv6ZlIjc+GlNFZatoNIWmnRVAuQ7LMqRawWTh0JcsmxqPhiVtvUZ7P1ISNSh/8RXt6teoi8W9hTkr178uizRFmJ4ATc2BysbrBojuXTmJeVVVQ4NnhDauGo1HR+N1K/+SJ1A78iNsgEjv2tC/tLyY6KBVJhUCQR5CF+iyWpwXT8eH9rSsUkEFKyz2pQD0L001wCNX51NOhKBYICeCuSkOBTbuCAmKBfIvdau7LLhx4fu0GiQyy8IesSIkslA2QFfp4OerN2Va5AhxH1k9uLHLzS+gC/hFh3wDwH0w2okgcaDTmtX1GLVstA/JKjsTu+38xiU+3peqP1EgeIiWNQNQ1HJpkkrULFJs12zRSAk8RC2tBJGyizbA9+Hi2K4W8V1YhBjBYCuNpujAaJ+sTh3VROWFR2NUW1auf9g2lU8af8HLWbl2YAP08B0ASfMqTwCL+NULfWSRfuEATvCQ+qHK9Q8boAV9nOS+rbabT+K8GVUdOCs+Iup2+BBgrscTwNgLKtc/dEu/qJyo3433rDKv1wZotfZ1ysFaNmkSZBugopLTYDbghu6AAFl3OmhYKGkr6ztduFSsJ0253QBSpV9rpF4AE9/pfhnXxniWH9wCXpOP3gDIz9dMSSwdhUAze7owKV4zf2tpuKyvyakvADYtm9EkBhsNrZJZiqVg1mOzQsvXqo6PAFl2mqkCIl1V9oFrabZBL1IjynHoFywImTkBsFlJRubq7QC8FzNReEWr1PV9yA0TPG5+oaK/9QZQ8Mm6BZD9EABhocvoE7gBJPRKB0AY3C5mSejKTRbFlAyQdKTEyaTNiEDTOO2DmPipo6UY/iqhomw86abxh1T5AjX186Vy+gXxzURxMW2ceU4SWyiRRp8UQEZTs8zNxAV1zRhNmUNrjxcja7Gwr2o9cAi/WW3PQJ9GM96ZwRLGGDc6Zuc2o6lp/P3uWGKZmo1nkE9ENrY6rknIGj7NqHA3q1DOfPGtAI1znF75Ml4OKCbkNVN4Eob4wp0qcoUpD5cWqrBFH/wjVb+HKsmG6l8JU+C9aivh+d/j7XsO41UEYSZrtaqZhP7qKFPrn1nPrpZIYm7RrtW2Cc9bNTIuNmnr0EjjxRybFjK40FNdLenjOjF+S40dMz1UK1pirbG+8HW+WR8+n0v/Pvl2qjFGJQyFVUuqT6f1mXY++ftN/iBFsOXcJGY4H0p2wLnocX50vkhIZWZBQhs27ouOJ50mxuv3IEP7zfjrIB/eyx/m5Ij56vjD/ma9v/hefHb81KzHi6uhp563Cwm7qtVMMZlANcoF/vv7PU02nvQN85FfbBgnNYzZsdSSnweSJy2rpZ5Q3m59TOR/5vkWvb8Z/Y2hT4pvgvW9at5DdgNUqxNHnoXQ5yUthfXDauU5J/1f3t+DC6Dpe8r8BGFTqb2ABFzN7RH0w1idcTpcmGYPzIXx9GalbdtmozhuM/rPIKJkU1jqBBK39WhWPJeOPgyddMXoXnirRC1rJwea6qGc9t+GOmMT15w0K4hNzBIRTkDzktDb10w3Oyh/ATBPDxbqD3XcnFxDw7j6D84nBxyOxlDS4JMDzSyg3DA347X2+o3XEAkTxvMD3vglqQVCFGu/v3F5YrS7DZV6IWZoDvPGe3sAKLUyJ/A2C3SVjIlyzSLFhTPgm9V7F64uiupumXRl762VkBROft0A5YhvLDWW+rg3gPT9bgQipWMJyStx2BsAFrknzZw4RGS6VaoVLp7rWdPNI6pEgKK0lBtAVkivtnEL34dujswNIFEZIU2PvRGHg9VgFU7r9LBs4UJ9D/yeAR5wRIDf6YXWjofHT5O2AHwA4D54iL9wVMmTCGLjPpWmcNhpT4Q4A/QCHT6p3PQbwElXjZcc9mHc3QdkiWg3v0CGybB4SbCRMcPCTdORQ2KQ90ygszTUF3GI2A9LpA6ufpr0Mn7pC3OKx1IFq1747AZ3gKWLkEMryuizAuhB8dLnyM3gOuNqAHrjogrYVglL0IvRfDNXfxT1Ws4YJXNM4with+Jq72iQ8BWdVpN44OqPol7rN0B3evYbcn8kfRgae6gcHJjjJtkP6f2Helci6ZIzfnWVuCHANJ2vZmRon8Y4Ujloui7VjIPjnxLaL0toz1zl5YmjhSs3k10gzlpeWWVrLVyvYZyIteKyehVwZcaR5TnFDVW4ZVXxG0CZdavdJOVjTWK3nT5UtXg1xcA7vcz7HLUOXEKiidSHsjDzCdTFpc8W8GgX2qLL2i2Fz5VLbpX0n5tqRMGT/ELBFOFldQLtcLytaCv8nIdiUiP+J7nkxXPhyKOdtry38Jpxtd0NeR9NehlD2zhVbmr90uQbZ8Hvdjh864bWGquLljFSXUh8t4wCN5IkGaB0yhkVrHRd+oweqhjvEMdCSSWrP5Ziat3jsdhTzNdzOakE2s8Fq2KYnUtinYjr9EkCSKdLqsGEY+GwAjJacgGQdKLCBavWcWnbdlh/agd8MD3TWhpxH9zzZJkPK2w73mnJKh7sklrG0TaYMNPlxpjYQ3aZ32EsDLuspW7mA5nYWko8NI+nVTmpEqtY5nycGb33axmxRD4JfHENRl3WobZfPonTzZyfYHJ74WXtVGc/sWnICxEVePy0S4R8jmM9trBpzFPFt/J1HA6fM4IszFJ7ZW96AtbFBsFU9WTbFPhJRrSyAUi/YWGXlbmWeaiRvwHkZg7CGyPtQfqNrrmO2wjBInQjSY9SYpp0V9fgNkLIjbCanqXVWFQ2I3XrbL5Wm3TnZa3qjF/j9AuizSwmI17WWP3VpvjIfJVHMcQCV0vr0VhcIp7UVlzsl973S+hoFicuL+ss9apMfOSoUK48pmea1uzqjaL5EeLynyB/jllmp0lM48laTHVqwdfFbuNpgfzF3bCnNfNd7FzfACmdiaebPXfi2ojTxwyByky32AtsfPhrcqlxMfHNjQxnMSq7wcylxej4Brv6sgbBQ5JxBbdS2TV2iGblENmiCv2bSdNOFgeQg1dUJl3YG28dWxd7H52udbH9OpNqWOGPPAQIjAaO7IFg8hUdbp7YiEVbn9y3Zl7GvjpQw5qX6dIdVYF5GYNsw/hXsJMZSRuSLFjng1k5ZmEkz8FxwGwAIpcmp2HNy7R1zuaZl3Hfcb5QAOSTuPxnXjeczeRMHG5Qc+rMBoiYGYO55K1iNbjfmTNBAvkRLP0U6flg7+MGOP/34RecYRzD7E4Dx3UWY+qTNQ58A9MKnxZzJkxj3J+oVo5pff64Scww5aQPFPcRQBafV8csw2FGUOfyrWE2Ta9MgWAVq73yfbBsz85Up/swa0fHwm0Gmt7pzobcsOL+DSC3cbDfyz4wNUs43aoCMKHCumh0rvMZd134MAPDSM87k8+Pu9aDpGsMazPQL3x2+1LNuC1k/exGi9hYWd83WPvxHvKFPDrFyskGaPMq7sC9b7A4+trClI1I9DJ2PUyHazc9wZClpN50TkM6jaIJqI2rXKN3STYAsZQYGVJjOu+eVHqfAN74aTLZhbeWmuhwvWleNVGVvmmPxd2jmzVYObQ0cqKIM8A72JGnvHULvnKYpjVrXjWRtScqLGwOVHIWoVaLEmJRuXEbxZ0mwF3DUiyB8CaTC83jm6Z6h1x9b9vHLVFvGgMeASpmGHDT3PAI0MN3AHiDxiNAe4IdAN5k8gBwxswjQAugDgBvxXkE+JOFAG8negRow1IuH7hpibpQq7xpurowy/CmrStzyd80juVGaDetaRe6Wm6a37Lbrl4aLjukO0Tar60SAuaNIKNPKncXCAFOOcsKVunKfdcWPlmlqYXSOHO4VFOw2PFdjK41dAOadNFIaijrNOliJg2XDZdsxmvCzOFiEYvOuQslqbLeE17RYn2cesJS/mJuu4PRtAHacz5xV3vvzcYOqWwaWedy9WwXqHM9fJ4qlzp3PsjGCt05JzbbjTsYr7nbPjDHSZTcWnNDCu7mpiHwANAqNevomJHgLFt+dQDgAkVRn38SA5KvEn1SNr/GYZWyuuJP+2BcNqejYd1Be8Lw2isZwVsAfdJ18wskyNLSWt/OhA/JEjZCasAV3QD/BcqpStYk5iDINkDbDDCpROp2vLkYMhkT16HDabIge794WYvGH6LpKqUlZuusycwJKZnk4+hxcgN8cbaQyoCD5jAt/fQQG7iz+mCbLXLcFoqYrg64xlkIrvhwD0GLAreJxaXVFNyB4c1ittJAbhtjzI4qexKQtp6dL7KleXf0vCVNfWnM23lpomOrKBwvc05WLMO4lBGgsWPcZG/LeB4urdFrrB1ZVnFjomwfz5Vh9j2Vnbc+nu/LpcQVQXbzmfWs3PvrMur+jg5Dq6w+FJwkfTW23U2KXTKaZe77la2uqGDjyWLfw42Ximrj0RaATPIbkn+WVyKfD/z4zeoKmYvLIluHGr5xw6ZPJpf3ikicxqDUXVHmSFlrVn50cdanev2jUBPrDlTTqtwtJohjsgJQcUqavVUvpNNLWXMY6oW+4GSVbIWdA8kaRZSF2SobIM9e4RY5octZpTPFFVLVjSucnZgsglTY25y60X9wQlnqNyXqqPxZZLtMVD5Czc8KQI13qUG3AbgPVjpRJloe2RwcJ4BpIGeA2GeFoy/Z3ECFQ39baF8OIJOxaI5bmdgAc4ttZ/NAQNN34fRJ1m/gBLAUzhNg6FNyAliR4xmwPrdxlq17OBrlUiv2cB/KpdGXwuV7xXINC7drLUnzYQpHtku+EwLkeLW4QpmYD+Ou3ROg3iwrflJVz1SZaPaWZv0GJr7rpRs5B4uZYnXIZaLlFV5/O3zoCzaKq8KdrYspP4UrnYvlkpSBedzxKl8KoOTEYuWBQa0E+1At/bEw+eErs8YLoOKNq35FC+60x6giNEFxtqRGXmFyv5qsUcSBkTcZY+XiSSeVfJkzDGoyBjcmZa/J+NU6uuOCxmIogJzHQWPhjSI43ikPyn5XqY6tZvWuhT1Hc8i2D0ydXi3HLSe0H6oFtTLnfAZRxlQAxRWqafeJ8zBqVhUucebTDWAwIfcd4DQH6yxxmoNQlje0H24AlS+QA7hn8y2A6vJvAMfDJ078sB3pTucbHlQy/KqxDKUL8+mrBXkXU1VbxInVq1rUXzhO4zUHFdWGWowFA4sVa9Wcby5urJa3VfjUVS2Ry0xFbgxJTLxQrdgyoba6x4shk9D7EdTcSqV+yEWSDJUDdflUdZtbLe7x4slIWDodrSLse2i/pu7vsRWFtYpA0Tu1WIoriKuxrx2o8m/GU+Tevydj+MHneziftp7cq9z36yBC7Tww1a6fN+7Jeh6//+H3H//85a9/+fnXf/7zjz+/ff3Hl7f//+ev3778/dvXf/3208t/+uOXH3//sv/t/wA=);lineShape=1;" parent="1" vertex="1">
                    <mxGeometry x="337.632911270264" y="158.59958652991952" width="281.57024030717616" height="198.54305363018443" as="geometry"/>
                </mxCell>
                <mxCell id="40" value="see so theese 2 are disconnected graphs&amp;nbsp;" style="text;html=1;align=center;verticalAlign=middle;resizable=0;points=[];autosize=1;strokeColor=none;fillColor=none;" parent="1" vertex="1">
                    <mxGeometry x="315" y="60" width="250" height="30" as="geometry"/>
                </mxCell>
                <mxCell id="41" value="" style="shape=stencil(7VrLchw3DPwaXVHgGzw7zn+4ynKkimK5ZOX19wGzxfGyOduKT7n4Jq/ZMyTQaDw4d+nd14cPX+7von59fXn+9f7Px4+vD3fpp7sYHz8/3L88vvpfd+n9XXr36fnl/peX598/f7z8+8uHsXL89dvzH+MJf11wvYvVgYr69+WXKD39+8PPl/VPj5+v15tYXtYXyZ2sb1Last6kGFlfcD8hSK4EkCXEFZDEGgFEKesJQpHGjqBS1yOEJo28wUwS2FQlKgGUecQDEMWIF+xw0gHIYuE2oHWp8IYmMRJAkR5WgDOlEECaRpyAFCSSM1Tfkq2AJJ1YqRYpZQVUyQwQpMCWOPmKSV4PnVVyJgBnjq6AKIn4oSSpAHD+MkCQttI7V1HiuOxmBYCfigGa6Molf2cgnvYdNwCk+c5zgNtk9XSp9NBudV3P4J6JJOLcr3H1dPVHkDekjd41SiZsdW7GVTWcjolYKamE1dNO+EDI58IY1hBtgW4p1hnBB+Bg1zkgS1kd51HO4mGo0Kp8zeWcvCF0zA6mU8/PAU3ySg1LUojjXKsNAGXq+TnA42ulhrXJ33OA54fVD/1w5TlApa+69C3FnCcU0dWqnvSYUrqN4PlNKnl+lrS62ZN8IwdQTIgjaRMfKPqsJ+4C0XX/1mnuCSiqlunzI9rTSVcZrUXX8zbjcTPl8CoKOgn9iFnE1zOp8CiDOK7zl3NpkZRxPcuDnlYrrg9MrzGDjGKApU1Jis9n4lswXsZ+SAFWkZ++vrDaBROar+8ke7RpvWuVo/FYwb9GE2bD+tHXs2KtTmsffI40Xtx663mt0vgtyM+ulM8FaxavuZWVszOpXK1neuWKC1mj84AfWQMUzmt+wiDPS30DsKLIYwayt2t6JIlsBBkYNdCg8ShrbQMQlsaymZXTYtQHDQGNA1rdrMSEsU0eXDmORXI8AvEq9bFq1gHQt4wGkW2pYjvYKy3hh3p1BBh3HNYHbSagW9RoAd/QmZW8u9vOUFkCiVj+OkDZGwJWUW7WxOgdsOZ/I0THGzYuUfL5GbYqigZQ3N4QOVu9Ok4IUHaGvBU6HqJvcCniG1ij42zV7Qws9Yx4iGhWlntGxBUEdOaHNnP3lacbfwM0/v1o1G8B0Ep1+v6WWWtBQGNs/W5A2ITsGAWcJxSbonIFYDl071u8KM8MkLBvGaM6tiXF7i6o0jzdNpnpVJfK1od0KktpY5LRulyxnx3MI/vRzWkqiQixIiuMt78B60ILEngf8qOvIM//0Vf8v33Fvr7TWmrbvyVarFXkgzU6uj+6lOt8TOxZt3h/Y3w189Z/rFny2X7YBHtOba7mGqzPMUz21qg+d5y+WeazsYCVqTeOdFyXNoDOIeQ5oOJgdlCaZTHbYjJzzdqGUS1SEo26EQA8C7ibIS1Vo+M31xVoi2rh9fshywcg0Slo0g2gtH5PEUcEpU2xvDXvjmvsFG+8SOykhuQuaTYZ54C+Dfn5/U/2lmJ1XDY6phw3Jesbsus78XTeBD6neSN0Djj08wAEOrMfNyUrNdwMLAWWjBqWePPofoXWzl3JmhZnjm3XasxKNaMfnI7sAtXDBe8SjV56NcWbPpdONq5pmxJ70DJdGoXTalYv3ioBuM5BTx68HGd3ugmLx9Boa2d1xtcByLT6MsPyOkR6hnEtARfZSt/g3atBQqe3zN4pQqNW+Ya8wAOuzqHY+fqCCTrQIUTfCgClF8a+Hu7hldZ3Y/CDz2cK1hsWqDoz/K31lnA92//2HYFSrRjfZhTcP9tPR23RWQ/cWl8z2p/k8tGwQgjwplq3ji5wAh396hH29Mb0uz92eXO9//Hty5pPj09Plw9zrv8fv8Txny5f8aT3/wA=);lineShape=1;" parent="1" vertex="1">
                    <mxGeometry x="359.6585850449053" y="87.51460594309629" width="50.24537973877932" height="51.80810170766017" as="geometry"/>
                </mxCell>
                <mxCell id="42" value="" style="shape=stencil(rVnZbhw3EPyafW3wPp59/IcBy9EiimTIspP8fWqy4GRY3CkjgN+k2akh+6quJi/x3bfHT18fLsF9e3t9+f3hz+vnt8dLfH8J4fr8+PB6fcNfl/jhEt99eXl9+O315fvz59v/Xz9tb25//fHyY/vCXzdcNZc2UHB/3x548+XfBx9vrz9dnw+vd3Nhej1azeev+2CuTe9Xy0m8H63n6f1uzYv3s/X5+1gxBwFobAA+kYQFwZmnFZpcIQQrZQLApaULQLYwbykk604AqjU3A5oFAYjO4mxD9JaFW2OwVmdAkjbEbNHPgGpFeAk/1znvkrPUzgH42c2ZkaIFEbgURiLvgGJOeCkl87QCIh0FoJif45CdDBy+52Yv5WhOrdCtz17Keax5F4DvxTlwuWtAGV4fgBKsVwHonK2lWBWA4kd97RTgrIgtlWiFAElGumT2Uq3WRXoXFFCcAA2sJ9K7wOh5hYYticDBRDenRquDeM4A5NaGNUU91KWme7CobUh9BqRBnvcB+N5cQL1aEm7NydLspZ5HlZ/WQ2Eb1AopmyMbnDQaJBDmXGpNRjp2qxS4MjZ5xnwMCOPJGbcWirST6Q2qbDNrVGxSG91nEkB6qxIF83Wqhzgq5D6gMpG1rJkPyUyAOor2jMgKpTd4RPHS0hS7liZbes9eQrY6BajmPa+gqLJ6Fj+wwQmjK4ymwDXZRWuxUDkOKtK1DWI8ZGsRFYfMyUTGXRZQW7po1STQlg5UgxQn8EmkDtStiGwFk5LWKFXGYWOhOZfQk5R06HsbP3RRla1b5nQGKJpBbpKaQV9VJdrh1siAKuge5F6WFVSJ9mY1sA1BGd1HXA8AVaJ9kT+IQ1RGA1AYIG3Alkj+JKnuYXQjo7Ns7HBrbQyIykvFcmWAmpmQGtEtALWlxERW9k+cZasP7KWuVgis+QBIaoXArIHANQ0g5gNA8RIAHIcgWQNGl8QArwoojWQ+lqjaUmGR+PMSDSsJKNZoC5HBBl0PYeGlrLaE+XwpUS/c6t0ijYFQDQJLsF+TxV8KWA5Byj6pnZXcnZlGhTpaniNX9/S6D4DamUsOvV4prG1cIA3nZMltAwlphySNxs9ttgGfUOIb0iLPW4Jal3JmoW/4LYkVMOeR0YhMEx0FkoxFX5NMVhajDwl8X4ii5siIPjTUfUBYrG6ypWBs8ovVRdBAWuRJ11SW3Og4h8jJsanxYNb2J6dj05zf2wShpiA/Dg0OQ40aX0NnMV31UUjcqfFQcqotJs9kWatsWikt06jTK7RlbIry7CQ7q5HdKpMvjhI+FHUS/I30ptMZpIY6JcsLG29yQlBfWRrENuSL9C7L0eBGTAKALZHUhZfUlmA0aTJwm+ooufBEvSWf2lJahnyt+vJyjABuUx1lSw3qik3Ou0i+uGhjediSeVZEZBR9p8A1Db+p9AYv0ZC/nTkp1mh8PwC/SSKryyFwlzMKiIxIIFXJrTHysRpoISte8nwDAeJRWwqNvQQ3KJkYCndFWNUUt0buiiDPKkhgu1WauRX0rALnG+sfbFLdcfg8BNgOiFLO+DDE+d7ZEWnhJe84vX2Roq+xSPT6VK2wcPD6VDotB4nyriywyE1yNN4b/u5POXovpO2lrnLLNZysAceN00t14bj1u6E27keWZ0knT6EDm+pkwQc+MXDy8ClyHmu5mXiwcPIcKXOl7/cOJylJJ5hu5OjJ66QNnDyo/p93zz99HX/8d8395fr0dLslP/7O1+J4dLtSjx/+AQ==);lineShape=1;" parent="1" vertex="1">
                    <mxGeometry x="453.8987773979343" y="88.79108952952174" width="27.145077811063857" height="56.40158162152272" as="geometry"/>
                </mxCell>
            </root>
        </mxGraphModel>
    </diagram>
</mxfile>